<?xml version="1.0" encoding="utf-8"?>
<!-- Generator: Adobe Illustrator 15.1.0, SVG Export Plug-In  -->
<!DOCTYPE svg PUBLIC "-//W3C//DTD SVG 1.1//EN" "http://www.w3.org/Graphics/SVG/1.1/DTD/svg11.dtd" [
	<!ENTITY ns_flows "http://ns.adobe.com/Flows/1.0/">
]>
<svg version="1.1"
	 xmlns="http://www.w3.org/2000/svg" xmlns:xlink="http://www.w3.org/1999/xlink" xmlns:a="http://ns.adobe.com/AdobeSVGViewerExtensions/3.0/"
	 x="0px" y="0px" width="450px" height="130px" viewBox="-4.403 -8.772 450 130" enable-background="new -4.403 -8.772 450 130"
	 xml:space="preserve">
<defs>
</defs>
<path fill="#5d5d5d" d="M355.965,54.829c0,0-9.502-13.892-7.091-31.801c1.71-12.781,12.528-24.815,27.751-22.807
	c3.976,0.526,8.93,3,13.235,6.611c0.646,0.539,6.472,5.795,6.472,5.795s5.266,5.155,11.821,6.171
	c6.556,1.018,10.252-0.433,10.252-0.433s-4.198,2.464-8.895,2.759c-6.689,0.419-10.983-2.113-13.405-4.055
	c-1.621-1.3-6.65-6.111-7.215-6.592c-3.993-3.347-8.553-5.36-12.132-5.833c-13.821-1.823-22.187,8.532-23.854,19.516
	C350.851,37.69,355.965,54.829,355.965,54.829z"/>
<path fill="#5d5d5d" d="M379.953,10.794c0.859,0.082,1.778,0.344,2.737,0.685c-2.027-1.129-4.044-1.827-5.766-2.054
	c-7.181-0.947-12.368,2.258-15.685,7.306c-1.587,2.415-2.737,4.277-3.601,9.364c-2.303,13.602,1.981,22.965,1.981,22.965
	s-1.026-12.844,1.518-22.975C362.933,18.943,368.14,9.604,379.953,10.794z"/>
<path fill-rule="evenodd" clip-rule="evenodd" fill="#55CEBF" d="M409.374,30.394c3.727,1.594,4.389,0.701,6.464-2.199
	c0.287-0.671,1.193-0.435,0.897,0.412c-1.379,3.972-1.139,4.77,2.225,6.63c0.76,0.344,0.463,1.186-0.401,0.886
	c-2.557-1.271-4.206-2.077-6.6,1.813c-0.233,0.493-1.09,0.467-0.747-0.382c1.722-5.167,0.242-4.611-2.266-6.26
	C407.801,30.731,408.563,29.97,409.374,30.394"/>
<path fill="#5d5d5d" d="M439.775,17.093c-1.688,1.015-3.008,2.547-3.316,4.823c2.376,5.674,1.204,12.539,0.425,17.987
	c-1.069,7.563-2.247,11.724-5.994,21.85c-6.193,16.708-11.693,25.634-11.693,25.634s8.602-6.609,16.292-23.975
	c2.496-5.628,5.856-15.333,7.503-29.99C443.647,27.615,442.882,21.757,439.775,17.093z"/>
<path fill-rule="evenodd" clip-rule="evenodd" fill="#55CEBF" d="M421.904,19.404c6.904-2.874,6.563-4.932,5.429-11.382
	c-0.522-1.211,0.93-2.147,1.685-0.629c3.47,6.925,4.828,7.609,11.618,5.582c1.42-0.555,2.146,0.946,0.639,1.656
	c-4.947,1.784-8.142,2.886-6.081,11.047c0.352,0.976-0.782,2.032-1.484,0.502c-4.594-8.893-5.771-6.254-11.162-5.054
	C420.338,21.92,420.291,19.916,421.904,19.404"/>
<path fill="#5d5d5d" d="M425.387,9.184c-4.465-1.143-5.776-0.31-11.246,1.237c-5.092,1.442-11.704,0.666-11.885,0.565
	c0.138,0.077,2.783,5.261,11.991,3.007c5.038-1.232,7.361-1.146,11.279-0.176C425.921,12.13,425.621,10.229,425.387,9.184z"/>
<path fill="#5d5d5d" d="M17.791,55.227c1.044,0,1.567,0.461,1.856,1.45l10.79,36.545c0.291,0.928-0.058,1.45-1.044,1.45h-5.221
	c-0.986,0-1.392-0.522-1.682-1.45l-2.031-7.08H9.67l-2.029,7.08c-0.291,0.928-0.698,1.45-1.742,1.45H1.201
	c-1.045,0-1.392-0.522-1.103-1.45l10.848-36.545c0.29-0.988,0.755-1.45,1.798-1.45H17.791z M16.805,73.497
	c-0.754-2.376-1.624-9.8-1.682-10.556c-0.117,0.756-1.102,8.063-1.798,10.5l-1.972,6.494h7.367L16.805,73.497z"/>
<path fill="#5d5d5d" d="M62.344,85.679c0,3.828-2.204,7.425-8.063,8.816l6.208,5.511c0.753,0.696,0.812,1.394,0.174,2.03
	l-2.552,2.726c-0.582,0.641-1.335,0.755-1.972,0.119l-10.674-9.92c-8.354-0.697-11.311-4.874-11.311-9.282V64.215
	c0-4.871,3.596-9.454,14.095-9.454c10.5,0,14.096,4.583,14.096,9.454V85.679z M42.042,84.461c0,2.899,2.318,4.35,6.205,4.35
	c3.887,0,6.266-1.45,6.266-4.35V65.433c0-2.899-2.378-4.349-6.266-4.349c-3.887,0-6.205,1.449-6.205,4.349V84.461z"/>
<path fill="#5d5d5d" d="M77.371,84.288c0,2.897,2.32,4.351,6.206,4.351c3.887,0,6.322-1.453,6.322-4.351V56.731
	c0-1.043,0.349-1.505,1.393-1.505h5.046c1.045,0,1.335,0.461,1.335,1.505v28.948c0,4.872-3.597,9.457-14.096,9.457
	c-10.499,0-14.096-4.585-14.096-9.457V56.731c0-1.043,0.406-1.505,1.45-1.505h5.048c0.985,0,1.393,0.461,1.393,1.505V84.288z"/>
<path fill="#5d5d5d" d="M119.313,55.227c1.045,0,1.567,0.461,1.856,1.45l10.79,36.545c0.291,0.928-0.059,1.45-1.044,1.45h-5.222
	c-0.987,0-1.392-0.522-1.682-1.45l-2.031-7.08h-10.79l-2.029,7.08c-0.291,0.928-0.697,1.45-1.741,1.45h-4.698
	c-1.045,0-1.392-0.522-1.103-1.45l10.849-36.545c0.29-0.988,0.753-1.45,1.798-1.45H119.313z M118.328,73.497
	c-0.754-2.376-1.625-9.8-1.682-10.556c-0.117,0.756-1.103,8.063-1.799,10.5l-1.972,6.494h7.366L118.328,73.497z"/>
<g>
	<g>
		<path fill="#5d5d5d" d="M199.572,79.195c0.322,0,1.162,0.452,1.162,0.646c-2.13,5.938-5.937,15.36-11.876,15.36
			c-4.969,0-6.905-4.775-6.905-10.518c0-8.783,4.516-19.816,10.714-19.816c2.452,0,3.678,1.679,3.678,4.002
			c0,5.098-5.873,10.907-10.778,11.81c-0.193,1.292-0.322,2.518-0.322,3.743c0,4.324,1.225,7.747,4.454,7.747
			C193.892,92.169,197.313,85.199,199.572,79.195z M185.76,79.002c5.421-2.518,7.873-7.035,7.873-10.069
			c0-1.549-0.451-2.321-1.29-2.321C189.567,66.612,186.857,72.997,185.76,79.002z"/>
		<path fill="#5d5d5d" d="M196.344,94.75c0.129-0.901,0.773-5.485,2.194-9.874c1.227-6.973,2.583-14.783,3.163-19.556h3.486
			l-1.549,8.968c2.322-4.837,4.71-9.228,8.583-9.228c2.066,0,3.293,1.486,3.293,4.131c0,5.421-4.519,15.424-4.519,20.717
			c0,1.745,0.645,2.39,1.55,2.39c2.129,0,4.776-5.681,7.616-13.103c0.388,0,1.161,0.518,1.161,0.646l-0.709,1.869
			c-2.517,6.716-5.55,13.363-9.422,13.363c-2.131,0-3.681-1.612-3.681-4.582c0-6.005,4.583-16.459,4.583-20.59
			c0-1.55-0.453-2.389-1.485-2.389c-2.13,0-6.003,6.003-8.39,14.458l-2.389,12.778H196.344z"/>
		<path fill="#5d5d5d" d="M222.223,65.32c2.581-13.167,4.519-14.972,6.905-14.972c1.809,0,2.517,1.608,2.517,4.257
			c0,2.519-1.03,6.327-2.646,10.715h2.325l-0.388,2.064h-2.711c-1.356,3.484-3.099,7.163-4.84,10.78
			c-0.389,3.354-0.647,6.386-0.647,8.775c0,3.745,0.712,5.421,1.938,5.421c2.193,0,4.711-4.907,7.872-13.166
			c0.325,0,1.1,0.323,1.1,0.646v0.129c-3.871,10.325-6.52,15.231-10.069,15.231c-2.968,0-3.808-4.002-3.808-10.39
			c0.129-4.648,0.84-10.455,2-16.911c0-0.193,0.064-0.322,0.064-0.517h-2.452l0.387-2.064H222.223z M226.679,67.384h-1.616
			l-0.967,6.454L226.679,67.384z M229.128,52.797c-1.226,0-2.387,4.648-3.742,12.523h2.063c1.484-4.132,2.583-8.004,2.583-10.909
			C230.032,53.445,229.904,52.797,229.128,52.797z"/>
		<path fill="#5d5d5d" d="M246.875,65.383h2.902c-1.61,7.938-3.029,15.361-3.807,21.429c-0.192,1.292-0.257,2.388-0.257,3.227
			c0,1.484,0.257,2.322,0.773,2.322c1.486,0,4.196-4.518,7.486-13.166c0.39,0,1.163,0.518,1.163,0.646
			c-4.516,10.907-6.843,15.232-9.551,15.232c-1.874,0-2.647-2.325-2.647-6.647l0.322-3.1c-1.808,5.165-4.324,9.747-7.809,9.747
			c-2.775,0-4.004-2.904-4.004-7.486c0-9.038,4.715-22.657,10.523-22.657c2.58,0,3.678,2.067,3.999,4.972L246.875,65.383z
			 M234.677,87.587c0,2.708,0.582,4.582,1.937,4.582c3.484,0,8.068-13.103,8.068-19.494c0-3.097-0.839-5.162-2.581-5.162
			C238.55,67.513,234.677,80.42,234.677,87.587z"/>
		<path fill="#5d5d5d" d="M266.366,79.195c0.32,0,1.095,0.323,1.095,0.646c-3.871,10.454-6.518,15.36-10.066,15.36
			c-2.972,0-3.811-4.002-3.811-10.39c0.131-4.648,0.839-10.455,2.002-16.911c2.776-15.556,6.648-24.333,9.94-24.333
			c2,0,2.517,2.067,2.517,4.709c0,9.231-5.613,22.141-10.845,29.888c-0.384,3.354-0.645,6.386-0.645,8.775
			c0,3.745,0.71,5.421,1.937,5.421C260.686,92.361,263.203,87.454,266.366,79.195z M265.655,46.021
			c-2.13,0-6.002,15.813-7.938,28.851c2.581-4.904,8.713-17.556,8.713-26.787C266.431,47.118,266.431,46.021,265.655,46.021z"/>
		<path fill="#5d5d5d" d="M287.273,78.421c1.612-2.648,2.452-5.615,2.452-7.745c0-2.064-0.711-3.485-2.065-3.485
			c-3.615,0-6.905,9.358-6.905,16.654c0,4.581,1.29,8.259,4.709,8.324c3.746-0.131,6.521-4.389,9.878-12.975
			c0.32,0,1.291,0.452,1.291,0.646l-0.645,1.483c-3.101,7.552-6.52,13.877-12.137,13.877c-4.452,0-6.261-4.71-6.261-10.518
			c0-8.715,4.258-19.754,10.266-19.754c3.031,0,4.39,2.777,4.39,6.262c0,2.775-0.842,6.002-2.325,8.714L287.273,78.421z"/>
		<path fill="#5d5d5d" d="M317.091,79.841c-1.615,4.26-3.938,6.971-7.099,7.875c-2.066,4.194-5.357,7.485-8.714,7.485
			c-7.421,0-7.81-10.715-4.649-21.751l2.001,0.517c0.903-4.776,3.743-8.972,8.263-8.972c6.843,0,7.293,11.94,3.809,20.846
			c2.131-1.029,3.743-2.838,5.228-6.646C316.25,79.195,317.22,79.454,317.091,79.841z M306.377,88.104
			c-5.551-0.452-7.81-5.295-7.938-10.457c-0.971,5.421-2.261,15.685,2.839,15.685C303.345,93.332,305.214,91.135,306.377,88.104z
			 M307.087,86.295c3.356-8.456,3.872-19.62-0.325-19.62C299.603,66.675,296.89,86.295,307.087,86.295z"/>
		<path fill="#5d5d5d" d="M312.699,94.75c0.129-0.901,0.773-5.485,2.194-9.874c1.226-6.973,2.582-14.783,3.161-19.556h3.485
			l-1.548,8.968c2.324-4.837,4.71-9.228,8.584-9.228c2.063,0,3.291,1.486,3.291,4.131c0,5.421-4.517,15.424-4.517,20.717
			c0,1.745,0.646,2.39,1.547,2.39c2.131,0,4.775-5.681,7.617-13.103c0.387,0,1.161,0.518,1.161,0.646l-0.71,1.869
			c-2.516,6.716-5.551,13.363-9.423,13.363c-2.131,0-3.68-1.612-3.68-4.582c0-6.005,4.585-16.459,4.585-20.59
			c0-1.55-0.452-2.389-1.487-2.389c-2.128,0-6.001,6.003-8.388,14.458l-2.39,12.778H312.699z"/>
		<path fill="#5d5d5d" d="M345.743,78.421c1.613-2.648,2.451-5.615,2.451-7.745c0-2.064-0.71-3.485-2.066-3.485
			c-3.615,0-6.903,9.358-6.903,16.654c0,4.581,1.289,8.259,4.709,8.324c3.743-0.131,6.519-4.389,9.876-12.975
			c0.321,0,1.29,0.452,1.29,0.646l-0.644,1.483c-3.099,7.552-6.52,13.877-12.135,13.877c-4.453,0-6.261-4.71-6.261-10.518
			c0-8.715,4.259-19.754,10.264-19.754c3.031,0,4.388,2.777,4.388,6.262c0,2.775-0.838,6.002-2.323,8.714L345.743,78.421z"/>
		<path fill="#5d5d5d" d="M370.911,79.195c0.322,0,1.16,0.452,1.16,0.646c-2.128,5.938-5.938,15.36-11.874,15.36
			c-4.972,0-6.904-4.775-6.904-10.518c0-8.783,4.516-19.816,10.71-19.816c2.454,0,3.68,1.679,3.68,4.002
			c0,5.098-5.873,10.907-10.778,11.81c-0.193,1.292-0.322,2.518-0.322,3.743c0,4.324,1.227,7.747,4.453,7.747
			C365.231,92.169,368.652,85.199,370.911,79.195z M357.1,79.002c5.42-2.518,7.873-7.035,7.873-10.069
			c0-1.549-0.452-2.321-1.291-2.321C360.906,66.612,358.194,72.997,357.1,79.002z"/>
		<path fill="#5d5d5d" d="M375.942,65.32l-1.031,6.903c1.808-4.322,4.132-7.355,6.646-7.355c3.294,0,4.712,3.611,4.712,8.391
			c0,6.775-2.838,16.006-6.971,20.006c5.101-1.354,9.553-6.647,12.393-14.069c0.323,0,1.164,0.518,1.164,0.711l-0.777,1.937
			c-3.227,8.065-9.292,13.294-15.23,13.359c-3.034,0-4.518-1.419-5.098-4.002c-1.229,7.617-2.583,15.23-3.809,22.852h-3.035
			c1.099-9.36,2.712-14.655,2.712-14.655c2.002-12.197,4.842-29.429,5.228-34.076H375.942z M372.524,86.876
			c0,2.645,0.515,5.293,2.709,5.293c4.131,0,7.615-12.136,7.615-19.301c0-3.031-0.836-5.355-2.321-5.355
			c-2.324,0-5.099,5.1-6.908,12.199C373.235,81.971,372.524,84.684,372.524,86.876z"/>
		<path fill="#5d5d5d" d="M393.756,65.32c2.582-13.167,4.519-14.972,6.905-14.972c1.808,0,2.517,1.608,2.517,4.257
			c0,2.519-1.031,6.327-2.645,10.715h2.322l-0.387,2.064h-2.71c-1.355,3.484-3.099,7.163-4.843,10.78
			c-0.384,3.354-0.646,6.386-0.646,8.775c0,3.745,0.712,5.421,1.938,5.421c2.194,0,4.711-4.907,7.875-13.166
			c0.319,0,1.094,0.323,1.094,0.646v0.129c-3.87,10.325-6.518,15.231-10.065,15.231c-2.972,0-3.81-4.002-3.81-10.39
			c0.131-4.648,0.838-10.455,2.001-16.911c0-0.193,0.065-0.322,0.065-0.517h-2.454l0.388-2.064H393.756z M398.21,67.384h-1.615
			l-0.968,6.454L398.21,67.384z M400.661,52.797c-1.229,0-2.387,4.648-3.743,12.523h2.064c1.486-4.132,2.581-8.004,2.581-10.909
			C401.563,53.445,401.436,52.797,400.661,52.797z"/>
	</g>
</g>
<path fill="#5d5d5d" d="M176.008,57.962c-3.968-3.739-10.176-4.945-16.156-3.106c-6.56,1.953-11.329,7.014-12.883,13.57
	c-0.745,3.335-0.745,6.383,0.057,8.743c0.805,2.298,2.417,3.907,4.317,4.37c1.321,0.285,2.696,0.114,4.081-0.749
	c-0.999,4.343-1.954,7.434-3.152,9.432c-0.711,1.191-1.146,2.097-3.407,4.667c1.761,0.123,2.801,0.539,3.058,0.225
	c1.297-1.599,1.249-1.546,2.349-3.341c2.014,1.729,4.66,2.589,7.476,2.589c1.146,0,2.298-0.115,3.506-0.462
	c3.337-0.861,11.501-4.313,14.436-17.94C181.529,68.313,180.207,61.927,176.008,57.962z M176.87,75.329
	c-2.646,12.018-9.545,15.01-12.361,15.758c-3.279,0.861-6.556,0.169-8.625-1.783c1.265-2.646,2.01-6.097,2.82-9.719
	c0.229-1.208,0.513-2.477,0.802-3.798l0.631-2.473c0.06-0.228,0.114-0.4,0.114-0.632c0.901-3.433,2.125-7.534,3.641-9.395
	l-2.912-0.754c-1.439,2.255-2.547,5.515-3.545,9.346v0.059c-1.148,5.002-3.622,7.185-5.404,6.726
	c-2.934-0.633-3.047-5.981-2.185-9.545c1.266-5.52,5.346-9.833,10.868-11.503c5.003-1.494,10.061-0.573,13.284,2.477
	C177.445,63.369,178.425,68.6,176.87,75.329z"/>
</svg>
